<mxfile host="app.diagrams.net" modified="2022-08-24T18:53:45.375Z" agent="5.0 (Macintosh; Intel Mac OS X 10_15_7) AppleWebKit/605.1.15 (KHTML, like Gecko) Version/15.5 Safari/605.1.15" etag="kbD_kuuby-dyNZPD6c6T" version="20.2.7" type="github">
  <diagram id="iirWNzHHyuH4ovU1Ht1f" name="Page-1">
    <mxGraphModel dx="735" dy="520" grid="1" gridSize="10" guides="1" tooltips="1" connect="1" arrows="1" fold="1" page="1" pageScale="1" pageWidth="850" pageHeight="1100" math="0" shadow="0">
      <root>
        <mxCell id="0" />
        <mxCell id="1" parent="0" />
        <mxCell id="b5b50U3EUomXbIhhTuj9-4" style="edgeStyle=orthogonalEdgeStyle;rounded=0;orthogonalLoop=1;jettySize=auto;html=1;entryX=0.5;entryY=0;entryDx=0;entryDy=0;" edge="1" parent="1" source="b5b50U3EUomXbIhhTuj9-2" target="b5b50U3EUomXbIhhTuj9-3">
          <mxGeometry relative="1" as="geometry" />
        </mxCell>
        <mxCell id="b5b50U3EUomXbIhhTuj9-2" value="Initial opening of application" style="ellipse;whiteSpace=wrap;html=1;aspect=fixed;" vertex="1" parent="1">
          <mxGeometry x="340" y="30" width="120" height="120" as="geometry" />
        </mxCell>
        <mxCell id="b5b50U3EUomXbIhhTuj9-6" value="Ok" style="edgeStyle=orthogonalEdgeStyle;rounded=0;orthogonalLoop=1;jettySize=auto;html=1;exitX=0.5;exitY=1;exitDx=0;exitDy=0;entryX=0.5;entryY=0;entryDx=0;entryDy=0;" edge="1" parent="1" source="b5b50U3EUomXbIhhTuj9-3" target="b5b50U3EUomXbIhhTuj9-5">
          <mxGeometry relative="1" as="geometry" />
        </mxCell>
        <mxCell id="b5b50U3EUomXbIhhTuj9-11" style="edgeStyle=orthogonalEdgeStyle;rounded=0;orthogonalLoop=1;jettySize=auto;html=1;exitX=1;exitY=0.5;exitDx=0;exitDy=0;entryX=1;entryY=0.5;entryDx=0;entryDy=0;" edge="1" parent="1" source="b5b50U3EUomXbIhhTuj9-3" target="b5b50U3EUomXbIhhTuj9-2">
          <mxGeometry relative="1" as="geometry">
            <mxPoint x="510" y="130" as="targetPoint" />
            <Array as="points">
              <mxPoint x="510" y="250" />
              <mxPoint x="510" y="90" />
            </Array>
          </mxGeometry>
        </mxCell>
        <mxCell id="b5b50U3EUomXbIhhTuj9-12" value="Cancel" style="edgeLabel;html=1;align=center;verticalAlign=middle;resizable=0;points=[];" vertex="1" connectable="0" parent="b5b50U3EUomXbIhhTuj9-11">
          <mxGeometry x="-0.24" y="-2" relative="1" as="geometry">
            <mxPoint y="-24" as="offset" />
          </mxGeometry>
        </mxCell>
        <mxCell id="b5b50U3EUomXbIhhTuj9-17" style="edgeStyle=orthogonalEdgeStyle;rounded=0;orthogonalLoop=1;jettySize=auto;html=1;exitX=0;exitY=0.5;exitDx=0;exitDy=0;entryX=0;entryY=0.5;entryDx=0;entryDy=0;" edge="1" parent="1" source="b5b50U3EUomXbIhhTuj9-3" target="b5b50U3EUomXbIhhTuj9-2">
          <mxGeometry relative="1" as="geometry">
            <mxPoint x="310" y="90" as="targetPoint" />
            <Array as="points">
              <mxPoint x="340" y="240" />
              <mxPoint x="300" y="240" />
              <mxPoint x="300" y="90" />
            </Array>
          </mxGeometry>
        </mxCell>
        <mxCell id="b5b50U3EUomXbIhhTuj9-18" value="Back" style="edgeLabel;html=1;align=center;verticalAlign=middle;resizable=0;points=[];" vertex="1" connectable="0" parent="b5b50U3EUomXbIhhTuj9-17">
          <mxGeometry x="0.42" y="2" relative="1" as="geometry">
            <mxPoint y="52" as="offset" />
          </mxGeometry>
        </mxCell>
        <mxCell id="b5b50U3EUomXbIhhTuj9-3" value="Ask for application folder path" style="rounded=0;whiteSpace=wrap;html=1;" vertex="1" parent="1">
          <mxGeometry x="340" y="220" width="120" height="60" as="geometry" />
        </mxCell>
        <mxCell id="b5b50U3EUomXbIhhTuj9-8" style="edgeStyle=orthogonalEdgeStyle;rounded=0;orthogonalLoop=1;jettySize=auto;html=1;exitX=0.5;exitY=1;exitDx=0;exitDy=0;entryX=0.5;entryY=0;entryDx=0;entryDy=0;" edge="1" parent="1" source="b5b50U3EUomXbIhhTuj9-5" target="b5b50U3EUomXbIhhTuj9-7">
          <mxGeometry relative="1" as="geometry" />
        </mxCell>
        <mxCell id="b5b50U3EUomXbIhhTuj9-15" value="Ok" style="edgeLabel;html=1;align=center;verticalAlign=middle;resizable=0;points=[];" vertex="1" connectable="0" parent="b5b50U3EUomXbIhhTuj9-8">
          <mxGeometry x="-0.2" y="3" relative="1" as="geometry">
            <mxPoint x="-3" as="offset" />
          </mxGeometry>
        </mxCell>
        <mxCell id="b5b50U3EUomXbIhhTuj9-14" style="edgeStyle=orthogonalEdgeStyle;rounded=0;orthogonalLoop=1;jettySize=auto;html=1;exitX=1;exitY=0.5;exitDx=0;exitDy=0;" edge="1" parent="1" source="b5b50U3EUomXbIhhTuj9-5">
          <mxGeometry relative="1" as="geometry">
            <mxPoint x="510" y="250" as="targetPoint" />
          </mxGeometry>
        </mxCell>
        <mxCell id="b5b50U3EUomXbIhhTuj9-16" value="Cancel" style="edgeLabel;html=1;align=center;verticalAlign=middle;resizable=0;points=[];" vertex="1" connectable="0" parent="b5b50U3EUomXbIhhTuj9-14">
          <mxGeometry x="0.04" relative="1" as="geometry">
            <mxPoint as="offset" />
          </mxGeometry>
        </mxCell>
        <mxCell id="b5b50U3EUomXbIhhTuj9-19" style="edgeStyle=orthogonalEdgeStyle;rounded=0;orthogonalLoop=1;jettySize=auto;html=1;exitX=0;exitY=0.5;exitDx=0;exitDy=0;entryX=0;entryY=0.75;entryDx=0;entryDy=0;" edge="1" parent="1" source="b5b50U3EUomXbIhhTuj9-5" target="b5b50U3EUomXbIhhTuj9-3">
          <mxGeometry relative="1" as="geometry">
            <mxPoint x="300" y="250" as="targetPoint" />
            <Array as="points">
              <mxPoint x="300" y="350" />
              <mxPoint x="300" y="265" />
            </Array>
          </mxGeometry>
        </mxCell>
        <mxCell id="b5b50U3EUomXbIhhTuj9-20" value="Back" style="edgeLabel;html=1;align=center;verticalAlign=middle;resizable=0;points=[];" vertex="1" connectable="0" parent="b5b50U3EUomXbIhhTuj9-19">
          <mxGeometry x="-0.2485" y="1" relative="1" as="geometry">
            <mxPoint y="-18" as="offset" />
          </mxGeometry>
        </mxCell>
        <mxCell id="b5b50U3EUomXbIhhTuj9-5" value="Create a user mode" style="rounded=0;whiteSpace=wrap;html=1;" vertex="1" parent="1">
          <mxGeometry x="340" y="320" width="120" height="60" as="geometry" />
        </mxCell>
        <mxCell id="b5b50U3EUomXbIhhTuj9-10" value="" style="edgeStyle=orthogonalEdgeStyle;rounded=0;orthogonalLoop=1;jettySize=auto;html=1;" edge="1" parent="1" source="b5b50U3EUomXbIhhTuj9-7" target="b5b50U3EUomXbIhhTuj9-9">
          <mxGeometry relative="1" as="geometry" />
        </mxCell>
        <mxCell id="b5b50U3EUomXbIhhTuj9-7" value="Load and display all applications (all unchecked)&amp;nbsp;" style="rounded=0;whiteSpace=wrap;html=1;" vertex="1" parent="1">
          <mxGeometry x="340" y="420" width="120" height="60" as="geometry" />
        </mxCell>
        <mxCell id="b5b50U3EUomXbIhhTuj9-9" value="" style="whiteSpace=wrap;html=1;rounded=0;" vertex="1" parent="1">
          <mxGeometry x="220" y="530" width="120" height="60" as="geometry" />
        </mxCell>
      </root>
    </mxGraphModel>
  </diagram>
</mxfile>
